<svg xmlns="http://www.w3.org/2000/svg" viewBox="0 0 24 24" fill="none" stroke="currentColor" stroke-width="2" stroke-linecap="round" stroke-linejoin="round">
    <path d="M12 4.354c.34-.326.696-.615 1.066-.867.75-.494 1.57-.84 2.44-.95.8-.1 1.6.03 2.37.36.77.33 1.48.83 2.05 1.48.57.65 1.01 1.42 1.29 2.29.28.87.37 1.79.27 2.7.07.9-.17 1.77-.6 2.5l-6 6a1 1 0 01-1.414 0l-6-6c-.43-.73-.67-1.6-.6-2.5-.1-.92-.01-1.84.27-2.7.28-.87.72-1.64 1.29-2.29.57-.65 1.28-1.15 2.05-1.48.77-.33 1.57-.46 2.37-.36.87.11 1.69.45 2.44.95A6.992 6.992 0 0012 4.354z" fill="#FFFFFF"></path>
</svg> 